<svg xmlns="http://www.w3.org/2000/svg" viewBox="0 0 500 500"><g id="freepik--background-simple--inject-134"><path d="M408,128s-24-54-77-62-90,31-129,51c-20.42,10.47-43.75,6.41-65.43,11.48C67.24,144.69,41.12,246.24,70,304c25,50,69,76,136,82s114,13,174-36S436,199,408,128Z" style="fill:#92B4E3"></path><path d="M408,128s-24-54-77-62-90,31-129,51c-20.42,10.47-43.75,6.41-65.43,11.48C67.24,144.69,41.12,246.24,70,304c25,50,69,76,136,82s114,13,174-36S436,199,408,128Z" style="fill:#fff;opacity:0.7000000000000001"></path></g><g id="freepik--Wall--inject-134"><polyline points="393 197.33 393 206 428.33 206" style="fill:none;stroke:#263238;stroke-linecap:round;stroke-linejoin:round"></polyline><polyline points="410.33 208 410.33 218 388.33 218" style="fill:none;stroke:#263238;stroke-linecap:round;stroke-linejoin:round"></polyline><polyline points="393.67 221.33 393.67 229.33 422.33 229.33" style="fill:none;stroke:#263238;stroke-linecap:round;stroke-linejoin:round"></polyline><line x1="419.67" y1="218.67" x2="435.67" y2="218.67" style="fill:none;stroke:#263238;stroke-linecap:round;stroke-linejoin:round"></line><line x1="410.33" y1="233.33" x2="410.33" y2="244.67" style="fill:none;stroke:#263238;stroke-linecap:round;stroke-linejoin:round"></line><line x1="432.33" y1="204.67" x2="432.33" y2="196" style="fill:none;stroke:#263238;stroke-linecap:round;stroke-linejoin:round"></line><line x1="411.67" y1="193.33" x2="411.67" y2="184" style="fill:none;stroke:#263238;stroke-linecap:round;stroke-linejoin:round"></line><line x1="423.67" y1="194.67" x2="444.33" y2="194.67" style="fill:none;stroke:#263238;stroke-linecap:round;stroke-linejoin:round"></line><polyline points="355.67 102.67 355.67 111.33 391 111.33" style="fill:none;stroke:#263238;stroke-linecap:round;stroke-linejoin:round"></polyline><polyline points="373 113.33 373 123.33 351 123.33" style="fill:none;stroke:#263238;stroke-linecap:round;stroke-linejoin:round"></polyline><polyline points="356.33 126.67 356.33 134.67 385 134.67" style="fill:none;stroke:#263238;stroke-linecap:round;stroke-linejoin:round"></polyline><line x1="382.33" y1="124" x2="398.33" y2="124" style="fill:none;stroke:#263238;stroke-linecap:round;stroke-linejoin:round"></line><line x1="373" y1="138.67" x2="373" y2="150" style="fill:none;stroke:#263238;stroke-linecap:round;stroke-linejoin:round"></line><line x1="395" y1="110" x2="395" y2="101.33" style="fill:none;stroke:#263238;stroke-linecap:round;stroke-linejoin:round"></line><line x1="374.33" y1="98.67" x2="374.33" y2="89.33" style="fill:none;stroke:#263238;stroke-linecap:round;stroke-linejoin:round"></line><line x1="386.33" y1="100" x2="407" y2="100" style="fill:none;stroke:#263238;stroke-linecap:round;stroke-linejoin:round"></line><polyline points="251.67 322 251.67 330.67 287 330.67" style="fill:none;stroke:#263238;stroke-linecap:round;stroke-linejoin:round"></polyline><polyline points="269 332.67 269 342.67 247 342.67" style="fill:none;stroke:#263238;stroke-linecap:round;stroke-linejoin:round"></polyline><polyline points="252.33 346 252.33 354 281 354" style="fill:none;stroke:#263238;stroke-linecap:round;stroke-linejoin:round"></polyline><line x1="278.33" y1="343.33" x2="294.33" y2="343.33" style="fill:none;stroke:#263238;stroke-linecap:round;stroke-linejoin:round"></line><line x1="269" y1="358" x2="269" y2="369.33" style="fill:none;stroke:#263238;stroke-linecap:round;stroke-linejoin:round"></line><line x1="291" y1="329.33" x2="291" y2="320.67" style="fill:none;stroke:#263238;stroke-linecap:round;stroke-linejoin:round"></line><line x1="270.33" y1="318" x2="270.33" y2="308.67" style="fill:none;stroke:#263238;stroke-linecap:round;stroke-linejoin:round"></line><line x1="282.33" y1="319.33" x2="303" y2="319.33" style="fill:none;stroke:#263238;stroke-linecap:round;stroke-linejoin:round"></line><polyline points="95.67 284.67 95.67 293.33 131 293.33" style="fill:none;stroke:#263238;stroke-linecap:round;stroke-linejoin:round"></polyline><polyline points="113 295.33 113 305.33 91 305.33" style="fill:none;stroke:#263238;stroke-linecap:round;stroke-linejoin:round"></polyline><polyline points="96.33 308.67 96.33 316.67 125 316.67" style="fill:none;stroke:#263238;stroke-linecap:round;stroke-linejoin:round"></polyline><line x1="122.33" y1="306" x2="138.33" y2="306" style="fill:none;stroke:#263238;stroke-linecap:round;stroke-linejoin:round"></line><line x1="113" y1="320.67" x2="113" y2="332" style="fill:none;stroke:#263238;stroke-linecap:round;stroke-linejoin:round"></line><line x1="135" y1="292" x2="135" y2="283.33" style="fill:none;stroke:#263238;stroke-linecap:round;stroke-linejoin:round"></line><line x1="114.33" y1="280.67" x2="114.33" y2="271.33" style="fill:none;stroke:#263238;stroke-linecap:round;stroke-linejoin:round"></line><line x1="126.33" y1="282" x2="147" y2="282" style="fill:none;stroke:#263238;stroke-linecap:round;stroke-linejoin:round"></line><polyline points="293 346 293 354.67 328.33 354.67" style="fill:none;stroke:#263238;stroke-linecap:round;stroke-linejoin:round"></polyline><polyline points="310.33 356.67 310.33 366.67 288.33 366.67" style="fill:none;stroke:#263238;stroke-linecap:round;stroke-linejoin:round"></polyline><polyline points="293.67 370 293.67 378 322.33 378" style="fill:none;stroke:#263238;stroke-linecap:round;stroke-linejoin:round"></polyline><line x1="319.67" y1="367.33" x2="335.67" y2="367.33" style="fill:none;stroke:#263238;stroke-linecap:round;stroke-linejoin:round"></line><line x1="310.33" y1="382" x2="310.33" y2="393.33" style="fill:none;stroke:#263238;stroke-linecap:round;stroke-linejoin:round"></line><line x1="332.33" y1="353.33" x2="332.33" y2="344.67" style="fill:none;stroke:#263238;stroke-linecap:round;stroke-linejoin:round"></line><line x1="311.67" y1="342" x2="311.67" y2="332.67" style="fill:none;stroke:#263238;stroke-linecap:round;stroke-linejoin:round"></line><line x1="323.67" y1="343.33" x2="344.33" y2="343.33" style="fill:none;stroke:#263238;stroke-linecap:round;stroke-linejoin:round"></line><polyline points="163.67 346 163.67 354.67 199 354.67" style="fill:none;stroke:#263238;stroke-linecap:round;stroke-linejoin:round"></polyline><polyline points="181 356.67 181 366.67 159 366.67" style="fill:none;stroke:#263238;stroke-linecap:round;stroke-linejoin:round"></polyline><polyline points="164.33 370 164.33 378 193 378" style="fill:none;stroke:#263238;stroke-linecap:round;stroke-linejoin:round"></polyline><line x1="190.33" y1="367.33" x2="206.33" y2="367.33" style="fill:none;stroke:#263238;stroke-linecap:round;stroke-linejoin:round"></line><line x1="181" y1="382" x2="181" y2="393.33" style="fill:none;stroke:#263238;stroke-linecap:round;stroke-linejoin:round"></line><line x1="203" y1="353.33" x2="203" y2="344.67" style="fill:none;stroke:#263238;stroke-linecap:round;stroke-linejoin:round"></line><line x1="182.33" y1="342" x2="182.33" y2="332.67" style="fill:none;stroke:#263238;stroke-linecap:round;stroke-linejoin:round"></line><line x1="194.33" y1="343.33" x2="215" y2="343.33" style="fill:none;stroke:#263238;stroke-linecap:round;stroke-linejoin:round"></line><polyline points="71.67 197.33 71.67 206 107 206" style="fill:none;stroke:#263238;stroke-linecap:round;stroke-linejoin:round"></polyline><polyline points="89 208 89 218 67 218" style="fill:none;stroke:#263238;stroke-linecap:round;stroke-linejoin:round"></polyline><polyline points="72.33 221.33 72.33 229.33 101 229.33" style="fill:none;stroke:#263238;stroke-linecap:round;stroke-linejoin:round"></polyline><line x1="98.33" y1="218.67" x2="114.33" y2="218.67" style="fill:none;stroke:#263238;stroke-linecap:round;stroke-linejoin:round"></line><line x1="89" y1="233.33" x2="89" y2="244.67" style="fill:none;stroke:#263238;stroke-linecap:round;stroke-linejoin:round"></line><line x1="111" y1="204.67" x2="111" y2="196" style="fill:none;stroke:#263238;stroke-linecap:round;stroke-linejoin:round"></line><line x1="90.33" y1="193.33" x2="90.33" y2="184" style="fill:none;stroke:#263238;stroke-linecap:round;stroke-linejoin:round"></line><line x1="102.33" y1="194.67" x2="123" y2="194.67" style="fill:none;stroke:#263238;stroke-linecap:round;stroke-linejoin:round"></line><polyline points="129.67 118 129.67 126.67 165 126.67" style="fill:none;stroke:#263238;stroke-linecap:round;stroke-linejoin:round"></polyline><polyline points="147 128.67 147 138.67 125 138.67" style="fill:none;stroke:#263238;stroke-linecap:round;stroke-linejoin:round"></polyline><polyline points="130.33 142 130.33 150 159 150" style="fill:none;stroke:#263238;stroke-linecap:round;stroke-linejoin:round"></polyline><line x1="156.33" y1="139.33" x2="172.33" y2="139.33" style="fill:none;stroke:#263238;stroke-linecap:round;stroke-linejoin:round"></line><line x1="147" y1="154" x2="147" y2="165.33" style="fill:none;stroke:#263238;stroke-linecap:round;stroke-linejoin:round"></line><line x1="169" y1="125.33" x2="169" y2="116.67" style="fill:none;stroke:#263238;stroke-linecap:round;stroke-linejoin:round"></line><line x1="148.33" y1="114" x2="148.33" y2="104.67" style="fill:none;stroke:#263238;stroke-linecap:round;stroke-linejoin:round"></line><line x1="160.33" y1="115.33" x2="181" y2="115.33" style="fill:none;stroke:#263238;stroke-linecap:round;stroke-linejoin:round"></line><polyline points="351 264.67 351 273.33 386.33 273.33" style="fill:none;stroke:#263238;stroke-linecap:round;stroke-linejoin:round"></polyline><polyline points="368.33 275.33 368.33 285.33 346.33 285.33" style="fill:none;stroke:#263238;stroke-linecap:round;stroke-linejoin:round"></polyline><polyline points="351.67 288.67 351.67 296.67 380.33 296.67" style="fill:none;stroke:#263238;stroke-linecap:round;stroke-linejoin:round"></polyline><line x1="377.67" y1="286" x2="393.67" y2="286" style="fill:none;stroke:#263238;stroke-linecap:round;stroke-linejoin:round"></line><line x1="368.33" y1="300.67" x2="368.33" y2="312" style="fill:none;stroke:#263238;stroke-linecap:round;stroke-linejoin:round"></line><line x1="390.33" y1="272" x2="390.33" y2="263.33" style="fill:none;stroke:#263238;stroke-linecap:round;stroke-linejoin:round"></line><line x1="369.67" y1="260.67" x2="369.67" y2="251.33" style="fill:none;stroke:#263238;stroke-linecap:round;stroke-linejoin:round"></line><line x1="381.67" y1="262" x2="402.33" y2="262" style="fill:none;stroke:#263238;stroke-linecap:round;stroke-linejoin:round"></line><line x1="88" y1="400" x2="428" y2="400" style="fill:none;stroke:#263238;stroke-linecap:round;stroke-linejoin:round"></line></g><g id="freepik--Shadow--inject-134"><ellipse cx="155.33" cy="417" rx="54.33" ry="17" style="fill:#92B4E3"></ellipse><ellipse cx="155.33" cy="417" rx="54.33" ry="17" style="fill:#fff;opacity:0.5"></ellipse></g><g id="freepik--Character--inject-134"><polygon points="167.96 89.33 167.96 313.33 363.96 313.33 363.96 82 213.29 82 167.96 89.33" style="fill:#92B4E3;stroke:#263238;stroke-miterlimit:10"></polygon><path d="M341.23,227a7.81,7.81,0,0,0-7.53-7.79,1.77,1.77,0,0,1-.52.08,1.74,1.74,0,0,1-.56-.1h-.14v0a1.71,1.71,0,0,1,0-3.13v0h.08a1.85,1.85,0,0,1,.62-.12,1.72,1.72,0,0,1,.52.09,8.08,8.08,0,0,0,7.49-8V206a8.08,8.08,0,0,0-8.09-8.08h0a1.72,1.72,0,0,1,0-3.43h.1a7.49,7.49,0,0,0,7.4-7.49v-3.44a7.5,7.5,0,0,0-7.5-7.5H286.55a117.63,117.63,0,0,1,2.19-11.56c1.25-4.68,6.87-11.56,7.81-20s-5.31-24.69-12.81-26.25-9.06,4.37-8.75,12.81-11.25,23.43-19.06,31.25-17.41,20.47-17.41,20.47l.54,59.83,9.68,4.68c9.69,4.69,20.94,5,20.94,5H328a6.25,6.25,0,0,0,6.25-6.25v-1.56c0-3.45-1.19-5.37-3.65-6.25v0a1.71,1.71,0,0,1,0-3.4v0h2.82A7.81,7.81,0,0,0,341.23,227Z" style="fill:#fff;stroke:#263238;stroke-linecap:round;stroke-linejoin:round;stroke-width:5px"></path><rect x="197.81" y="175.32" width="42.49" height="79.68" rx="6.42" style="fill:#263238"></rect><path d="M201,192l-10.67-31.67a38.71,38.71,0,0,1-1-5.33c0-1.33,5.31-9,5.31-9s-1.24-3.58.78-4.2,6.69,3.89,7.16,4.67.31,2.33-.31,3.73-4.83,10.12-5.45,10.58,7.31,13.85,12.6,21.32,10,14.31,8.87,17.27-6.06.62-9.8-1.09a30.16,30.16,0,0,1-7.47-5.6Z" style="fill:#fff;stroke:#263238;stroke-linecap:round;stroke-linejoin:round"></path><line x1="196.31" y1="145.39" x2="198.46" y2="147" style="fill:none;stroke:#263238;stroke-linecap:round;stroke-linejoin:round"></line><path d="M120.35,262.87s2,6,7.61,7.36S148.63,253,148.63,253l.66-5.67L126.63,250S119.35,254.2,120.35,262.87Z" style="fill:#fff;stroke:#263238;stroke-linecap:round;stroke-linejoin:round"></path><path d="M205.29,84.67S200.63,95,200.63,96s.12,1.58,2.09,2,20.43,3.94,23.91,3c2.54-.65,4.66-13.33,4.66-13.33a35,35,0,0,0-6.33-1c-2.33,0-8.67-.67-8.67-.67l-2.66,2.33,1-3-4-.66-1,2.33L209,84.33Z" style="fill:#fff;stroke:#263238;stroke-miterlimit:10"></path><path d="M226.63,101c1-.26,2-2.53,2.78-5.13l-27.58-3.24a19.23,19.23,0,0,0-1.2,3.37c0,1,.12,1.58,2.09,2S223.15,101.89,226.63,101Z" style="fill:#263238;stroke:#263238;stroke-miterlimit:10"></path><path d="M125.54,310.42a1.51,1.51,0,0,1-1.38-2.09l89-211a1.5,1.5,0,0,1,2.77,1.17l-89,211A1.52,1.52,0,0,1,125.54,310.42Z" style="fill:#263238;stroke:#263238;stroke-miterlimit:10"></path><path d="M191.21,163s-2-4.75-1.12-12.32c.26-2.25,2.65-5.29,2.8-6.38s-.78-2.33.62-2.33,2.8,1.86,2.8,3.42-1.08,4-.93,4.67a14.88,14.88,0,0,1-.15,2.95" style="fill:#fff;stroke:#263238;stroke-linecap:round;stroke-linejoin:round"></path><path d="M167.51,159.21s4.5,4.86,5,6.12.36,4,.36,4.5,1.44,1.26,1.8,2.34,2.88,8.45,2.88,9.53-1.62,2.52-3.24,3.24l-3.6,1.62-.54,5.76-14,2.16-1.62-6.12s4.5-1.26,5-5.22-5.58-9.53-4.14-15.83S163.37,157.77,167.51,159.21Z" style="fill:#fff;stroke:#263238;stroke-linecap:round;stroke-linejoin:round"></path><path d="M166.43,159.57a24.14,24.14,0,0,0-1.26,5.22c0,1.62,3.78,1.26,3.78,3.24a12.7,12.7,0,0,1-1.44,4.68s2,2,1.62,3-2,2.16-2.52.9-2.88-.72-2,1.8a13,13,0,0,0,2.7,4.32,13.52,13.52,0,0,1-3.42,5.22c-2.7,2.7-6.84,3.6-7.92,2.88s-7-5.4-10.07-9.72-5.76-11-3.06-17.81a14.89,14.89,0,0,1,10.79-9c1.8-.36-3.06-.9-1.26-3.42s6.84-4.32,9.72-2.88,2,3.24,3.6,3.78,3.24-2.16,4.86.18S174,161.73,166.43,159.57Z" style="fill:#263238;stroke:#263238;stroke-linecap:round;stroke-linejoin:round"></path><path d="M165.17,164.79s-.67,7.84-4.9,12.61-11.66,5.83-11.66,5.83" style="fill:none;stroke:#fff;stroke-linecap:round;stroke-linejoin:round"></path><path d="M154.55,188.36s4.13.16,8.89-4.08" style="fill:none;stroke:#fff;stroke-linecap:round;stroke-linejoin:round"></path><path d="M168.59,178.1s-2.7-4.31-4.14-2.7.36,6.48,2.88,7.38,3.42-.72,3.42-.72" style="fill:#fff;stroke:#263238;stroke-linecap:round;stroke-linejoin:round"></path><path d="M148.44,198.26s.89-4,2.69-5.22,15.12-2.7,18.72-3.06,7.38,1.8,7.38,1.8l1.8,3.06Z" style="fill:#fff;stroke:#263238;stroke-linecap:round;stroke-linejoin:round"></path><path d="M122,248.67s-3.67,4-4.33,6-1,6.33,2.66,9,9.34,3.33,12,2,4.34-4,4.34-8.34a16.86,16.86,0,0,0-1.34-7S126.63,245,122,248.67Z" style="fill:#fff;stroke:#263238;stroke-linecap:round;stroke-linejoin:round"></path><path d="M196.63,194.67s2.66-4.67,7.66-5,7.67.33,11.34,3.66S222,201.67,220,205s-4,5-8,5.33-8-4.33-8-4.33Z" style="fill:#fff;stroke:#263238;stroke-linecap:round;stroke-linejoin:round"></path><path d="M172.29,404.33s10.67-.66,12.67,2,.83,6.6-6.32,10.57c-6.24,3.47-20.49,7-25.28,6-5.6-1.08-2.4-11.27-2.4-11.27S166.29,412.33,172.29,404.33Z" style="fill:#fff;stroke:#263238;stroke-linecap:round;stroke-linejoin:round"></path><path d="M184.84,406.2a16.11,16.11,0,0,1-4.46,7.05c-4.45,4-14.78,6.51-21.3,7.47a16.58,16.58,0,0,1-8.77-.94,3.81,3.81,0,0,0,3.05,3.16c4.79.93,19-2.57,25.28-6,7.15-4,8.32-7.9,6.32-10.57Z" style="fill:#263238;stroke:#263238;stroke-linecap:round;stroke-linejoin:round"></path><path d="M121.29,407.33s-1.33,6,.34,8.67,10.66,4,14,2.33,4.33-6,4.33-10S134.29,412.67,121.29,407.33Z" style="fill:#fff;stroke:#263238;stroke-linecap:round;stroke-linejoin:round"></path><path d="M120.84,413.18a6.43,6.43,0,0,0,.79,2.82c1.66,2.67,10.66,4,14,2.33a6.84,6.84,0,0,0,3.09-3.36C129,418.39,123.18,415.1,120.84,413.18Z" style="fill:#263238;stroke:#263238;stroke-linecap:round;stroke-linejoin:round"></path><path d="M140.29,265.67s-2.33,12.33-2,14.66,1.34,8,1.34,8-8,47.67-8.67,59.34-5.33,32.33-6.67,40-2,15-4,18,2.67,5.33,5,6.66,11.67-.33,13-1,2.34-4.66,2.67-7.66S148.63,382,150,370s9.67-56,10.33-59.33,2.34-13,2.34-13-2.34,40.33-2.67,51-6,24.33-7,33.66-2.33,17.67-2.33,21.34-1,10.33,1,11.66,5.66.34,11.33-1.33,9.33-5.33,9.67-8,1-4,1-5.67,6.33-36.66,10.33-55,6.67-42.66,4.33-56.66a169.33,169.33,0,0,1-2.33-25S155.29,272,140.29,265.67Z" style="fill:#263238;stroke:#263238;stroke-linecap:round;stroke-linejoin:round"></path><line x1="162.63" y1="297.67" x2="152.96" y2="291.33" style="fill:none;stroke:#fff;stroke-linecap:round;stroke-linejoin:round"></line><path d="M150,197.33s-21.33,6-22,11.67-5,28.67-6,35.33-3.67,12.34.67,15.67,10.33,1,11.66-1.67,4-9,4-9,.67,13,.67,15,.33,5,7,5.67,20,1.33,26.33-.33,13-2,13.67-6-1.33-17.34,0-25,2.33-20,2.33-20,23.67-9.67,27.34-11-.34-10.67-4.34-13-8.33-2.34-13.66-1.34-12-.33-15.34-.33S150,197.33,150,197.33Z" style="fill:#fff;stroke:#263238;stroke-linecap:round;stroke-linejoin:round"></path><polyline points="190.29 202.33 188.29 218.67 194.63 204.33" style="fill:none;stroke:#263238;stroke-linecap:round;stroke-linejoin:round"></polyline><line x1="138.29" y1="249.33" x2="135.29" y2="219.67" style="fill:none;stroke:#263238;stroke-linecap:round;stroke-linejoin:round"></line><line x1="135.63" y1="228" x2="130.29" y2="215.33" style="fill:none;stroke:#263238;stroke-linecap:round;stroke-linejoin:round"></line><path d="M185,236.33s-4.67,16.34-15,22.67" style="fill:none;stroke:#263238;stroke-linecap:round;stroke-linejoin:round"></path><path d="M175,251s-4.67,5-14.67,10" style="fill:none;stroke:#263238;stroke-linecap:round;stroke-linejoin:round"></path><path d="M168,89.33l4,19.34s20-14,44-21.34,47.76-5.41,47.76-5.41S218,76,198,80.67,168,89.33,168,89.33Z" style="fill:#fff;stroke:#263238;stroke-miterlimit:10"></path></g></svg>